<svg width="35" height="40" viewBox="0 0 35 40" fill="none" xmlns="http://www.w3.org/2000/svg">
<path d="M25.8673 0C27.449 0 28.5204 0.872914 28.5204 2.20796C28.5204 6.31579 16.8367 7.2914 15 9.03723C12.0408 11.8614 7.65306 19.1014 4.43878 25.0064C3.21429 27.2657 3.06122 28.2413 3.97959 28.2413C5.2551 28.2413 6.73469 26.4442 8.97959 22.2336C13.8776 12.9397 19.949 7.75353 28.0612 7.75353C32.2449 7.75353 35 10.629 35 14.9422C35 20.3338 32.7551 23.9795 27.551 27.163C24.898 28.7548 24.2347 29.4737 24.2347 30.8087C24.2347 31.9897 25.2041 32.8626 27.449 33.6329C30.2551 34.6085 31.4796 35.6868 31.4796 37.2272C31.4796 38.8703 30.3061 40 28.5714 40C21.8367 40 23.8265 32.0411 18.9796 32.0411C17.5 32.0411 16.9898 33.0167 16.7857 33.9923C16.6327 35.0193 16.0714 35.43 15.3571 35.43C14.6939 35.43 14.2347 34.9166 14.2347 34.3517C14.2347 33.4275 15.3571 32.7599 16.3776 31.5276C17.449 30.1926 19.1327 27.9846 21.7857 23.8254C23.8776 20.5392 25.3571 16.0205 25.5612 12.4775C25.6122 10.8344 24.5918 9.85879 23.4184 9.85879C20.6633 9.85879 16.8367 13.1451 14.8469 18.2285C13.8265 20.7959 13.7245 23.8254 13.7245 27.163C13.7245 32.7599 10.8163 36.5083 5.40816 36.5083C2.7551 36.5083 1.02041 34.4544 1.02041 31.3222C1.02041 27.7792 3.82653 24.5956 3.82653 21.0526C3.82653 19.1014 0 17.561 0 14.7882C0 10.2696 8.87755 12.2208 14.5408 8.16431C20.102 4.05648 23.0612 0 25.8673 0Z" fill="black"/>
</svg>
